# Blender v2.79 (sub 0) OBJ File: ''
# www.blender.org
o Cube_Cube.001
v -0.293200 -1.688826 0.248798
v -0.587137 -0.253047 1.609732
v -1.180831 -0.554942 -1.139156
v -1.474768 0.880837 0.221777
v 1.474768 -0.880837 -0.221777
v 1.180831 0.554942 1.139156
v 0.587137 0.253047 -1.609732
v 0.293200 1.688826 -0.248798
vn -0.8840 -0.4040 0.2353
vn -0.4438 0.5669 -0.6940
vn 0.8840 0.4040 -0.2353
vn 0.4438 -0.5669 0.6940
vn 0.1470 -0.7179 -0.6805
vn -0.1470 0.7179 0.6805
s off
f 2//1 3//1 1//1
f 4//2 7//2 3//2
f 8//3 5//3 7//3
f 6//4 1//4 5//4
f 7//5 1//5 3//5
f 4//6 6//6 8//6
f 2//1 4//1 3//1
f 4//2 8//2 7//2
f 8//3 6//3 5//3
f 6//4 2//4 1//4
f 7//5 5//5 1//5
f 4//6 2//6 6//6
